<?xml version="1.0" encoding="UTF-8" standalone="no"?>
<svg
   xmlns:dc="http://purl.org/dc/elements/1.1/"
   xmlns:cc="http://creativecommons.org/ns#"
   xmlns:rdf="http://www.w3.org/1999/02/22-rdf-syntax-ns#"
   xmlns:svg="http://www.w3.org/2000/svg"
   xmlns="http://www.w3.org/2000/svg"
   xmlns:sodipodi="http://sodipodi.sourceforge.net/DTD/sodipodi-0.dtd"
   xmlns:inkscape="http://www.inkscape.org/namespaces/inkscape"
   height="515"
   version="1.1"
   width="1320"
   id="svg9740"
   inkscape:version="0.48.1 r9760"
   sodipodi:docname="systemArchitecture.svg">
  <metadata
     id="metadata10094">
    <rdf:RDF>
      <cc:Work
         rdf:about="">
        <dc:format>image/svg+xml</dc:format>
        <dc:type
           rdf:resource="http://purl.org/dc/dcmitype/StillImage" />
      </cc:Work>
    </rdf:RDF>
  </metadata>
  <defs
     id="defs10092" />
  <sodipodi:namedview
     pagecolor="#ffffff"
     bordercolor="#666666"
     borderopacity="1"
     objecttolerance="10"
     gridtolerance="10"
     guidetolerance="10"
     inkscape:pageopacity="0"
     inkscape:pageshadow="2"
     inkscape:window-width="1602"
     inkscape:window-height="915"
     id="namedview10090"
     showgrid="false"
     inkscape:zoom="1"
     inkscape:cx="664.30604"
     inkscape:cy="264.81468"
     inkscape:window-x="0"
     inkscape:window-y="0"
     inkscape:window-maximized="0"
     inkscape:current-layer="svg9740" />
  <polygon
     fill="#ffffff"
     points="14,14 102,14 112,24 112,109 14,109 14,14"
     stroke="#ffffff"
     stroke-width="1"
     id="polygon9742" />
  <polyline
     fill="none"
     points="14,14 102,14 112,24 112,109 14,109 14,14"
     stroke="#000000"
     stroke-width="1"
     id="polyline9744" />
  <polygon
     fill="#ffffff"
     points="102,14 112,24 102,24 102,14"
     stroke="#ffffff"
     stroke-width="1"
     id="polygon9746" />
  <polyline
     fill="none"
     points="102,14 112,24 102,24 102,14"
     stroke="#000000"
     stroke-width="1"
     id="polyline9748" />
  <text
     font-family="Dialog"
     font-size="12"
     x="17"
     y="29"
     id="text9750">
Data Model</text>
  <text
     font-family="Dialog"
     font-size="12"
     x="17"
     y="44"
     id="text9752">
Definition</text>
  <polygon
     fill="#ffffff"
     points="194,34 334,34 334,57 383,57 383,125 194,125 194,34"
     stroke="#ffffff"
     stroke-width="1"
     id="polygon9754" />
  <rect
     fill="none"
     height="23"
     stroke="#000000"
     stroke-width="1"
     width="140"
     x="194"
     y="34"
     id="rect9756" />
  <text
     font-family="Dialog"
     font-size="12"
     x="199"
     y="47"
     id="text9758">
Data Model Compiler</text>
  <rect
     fill="none"
     height="68"
     stroke="#000000"
     stroke-width="1"
     width="189"
     x="194"
     y="57"
     id="rect9760" />
  <line
     fill="#000000"
     stroke="#000000"
     stroke-width="1"
     x1="194"
     x2="189"
     y1="62"
     y2="62"
     id="line9762" />
  <line
     fill="#000000"
     stroke="#000000"
     stroke-width="1"
     x1="184"
     x2="179"
     y1="62"
     y2="62"
     id="line9764" />
  <line
     fill="#000000"
     stroke="#000000"
     stroke-width="1"
     x1="174"
     x2="169"
     y1="62"
     y2="62"
     id="line9766" />
  <line
     fill="#000000"
     stroke="#000000"
     stroke-width="1"
     x1="164"
     x2="159"
     y1="62"
     y2="62"
     id="line9768" />
  <line
     fill="#000000"
     stroke="#000000"
     stroke-width="1"
     x1="154"
     x2="149"
     y1="62"
     y2="62"
     id="line9770" />
  <line
     fill="#000000"
     stroke="#000000"
     stroke-width="1"
     x1="144"
     x2="139"
     y1="62"
     y2="62"
     id="line9772" />
  <line
     fill="#000000"
     stroke="#000000"
     stroke-width="1"
     x1="134"
     x2="129"
     y1="62"
     y2="62"
     id="line9774" />
  <line
     fill="#000000"
     stroke="#000000"
     stroke-width="1"
     x1="124"
     x2="119"
     y1="62"
     y2="62"
     id="line9776" />
  <line
     fill="#000000"
     stroke="#000000"
     stroke-width="1"
     x1="114"
     x2="113"
     y1="62"
     y2="62"
     id="line9778" />
  <line
     fill="#000000"
     stroke="#000000"
     stroke-width="1"
     x1="125"
     x2="113"
     y1="55"
     y2="62"
     id="line9780" />
  <line
     fill="#000000"
     stroke="#000000"
     stroke-width="1"
     x1="125"
     x2="113"
     y1="69"
     y2="62"
     id="line9782" />
  <text
     font-family="Dialog"
     font-size="12"
     x="135"
     y="52"
     id="text9784">
Reads</text>
  <polygon
     fill="#ffffff"
     points="290,218 412,218 412,241 461,241 461,309 290,309 290,218"
     stroke="#ffffff"
     stroke-width="1"
     id="polygon9786" />
  <rect
     fill="none"
     height="23"
     stroke="#000000"
     stroke-width="1"
     width="122"
     x="290"
     y="218"
     id="rect9788" />
  <text
     font-family="Dialog"
     font-size="12"
     x="295"
     y="231"
     id="text9790">
Meta Data Model</text>
  <rect
     fill="none"
     height="68"
     stroke="#000000"
     stroke-width="1"
     width="171"
     x="290"
     y="241"
     id="rect9792" />
  <line
     fill="#000000"
     stroke="#000000"
     stroke-width="1"
     x1="310"
     x2="310"
     y1="126"
     y2="131"
     id="line9794" />
  <line
     fill="#000000"
     stroke="#000000"
     stroke-width="1"
     x1="310"
     x2="310"
     y1="136"
     y2="141"
     id="line9796" />
  <line
     fill="#000000"
     stroke="#000000"
     stroke-width="1"
     x1="310"
     x2="310"
     y1="146"
     y2="151"
     id="line9798" />
  <line
     fill="#000000"
     stroke="#000000"
     stroke-width="1"
     x1="310"
     x2="310"
     y1="156"
     y2="161"
     id="line9800" />
  <line
     fill="#000000"
     stroke="#000000"
     stroke-width="1"
     x1="310"
     x2="310"
     y1="166"
     y2="171"
     id="line9802" />
  <line
     fill="#000000"
     stroke="#000000"
     stroke-width="1"
     x1="310"
     x2="310"
     y1="176"
     y2="181"
     id="line9804" />
  <line
     fill="#000000"
     stroke="#000000"
     stroke-width="1"
     x1="310"
     x2="310"
     y1="186"
     y2="191"
     id="line9806" />
  <line
     fill="#000000"
     stroke="#000000"
     stroke-width="1"
     x1="310"
     x2="310"
     y1="196"
     y2="201"
     id="line9808" />
  <line
     fill="#000000"
     stroke="#000000"
     stroke-width="1"
     x1="310"
     x2="310"
     y1="206"
     y2="211"
     id="line9810" />
  <line
     fill="#000000"
     stroke="#000000"
     stroke-width="1"
     x1="310"
     x2="310"
     y1="216"
     y2="218"
     id="line9812" />
  <line
     fill="#000000"
     stroke="#000000"
     stroke-width="1"
     x1="303"
     x2="310"
     y1="206"
     y2="218"
     id="line9814" />
  <line
     fill="#000000"
     stroke="#000000"
     stroke-width="1"
     x1="317"
     x2="310"
     y1="206"
     y2="218"
     id="line9816" />
  <text
     font-family="Dialog"
     font-size="12"
     x="321"
     y="176"
     id="text9818">
Instantiates</text>
  <polygon
     fill="#ffffff"
     points="546,30 747,30 747,53 796,53 796,129 546,129 546,30"
     stroke="#ffffff"
     stroke-width="1"
     id="polygon9820" />
  <rect
     fill="none"
     height="23"
     stroke="#000000"
     stroke-width="1"
     width="201"
     x="546"
     y="30"
     id="rect9822" />
  <text
     font-family="Dialog"
     font-size="12"
     x="551"
     y="43"
     id="text9824">
Specific Model Java Generator</text>
  <rect
     fill="none"
     height="76"
     stroke="#000000"
     stroke-width="1"
     width="250"
     x="546"
     y="53"
     id="rect9826" />
  <line
     fill="#000000"
     stroke="#000000"
     stroke-width="1"
     x1="546"
     x2="543"
     y1="130"
     y2="133"
     id="line9828" />
  <line
     fill="#000000"
     stroke="#000000"
     stroke-width="1"
     x1="540"
     x2="537"
     y1="137"
     y2="141"
     id="line9830" />
  <line
     fill="#000000"
     stroke="#000000"
     stroke-width="1"
     x1="534"
     x2="531"
     y1="145"
     y2="149"
     id="line9832" />
  <line
     fill="#000000"
     stroke="#000000"
     stroke-width="1"
     x1="528"
     x2="525"
     y1="153"
     y2="157"
     id="line9834" />
  <line
     fill="#000000"
     stroke="#000000"
     stroke-width="1"
     x1="522"
     x2="519"
     y1="161"
     y2="165"
     id="line9836" />
  <line
     fill="#000000"
     stroke="#000000"
     stroke-width="1"
     x1="516"
     x2="513"
     y1="169"
     y2="173"
     id="line9838" />
  <line
     fill="#000000"
     stroke="#000000"
     stroke-width="1"
     x1="510"
     x2="507"
     y1="177"
     y2="181"
     id="line9840" />
  <line
     fill="#000000"
     stroke="#000000"
     stroke-width="1"
     x1="504"
     x2="501"
     y1="185"
     y2="189"
     id="line9842" />
  <line
     fill="#000000"
     stroke="#000000"
     stroke-width="1"
     x1="498"
     x2="495"
     y1="193"
     y2="197"
     id="line9844" />
  <line
     fill="#000000"
     stroke="#000000"
     stroke-width="1"
     x1="492"
     x2="489"
     y1="201"
     y2="205"
     id="line9846" />
  <line
     fill="#000000"
     stroke="#000000"
     stroke-width="1"
     x1="486"
     x2="483"
     y1="209"
     y2="213"
     id="line9848" />
  <line
     fill="#000000"
     stroke="#000000"
     stroke-width="1"
     x1="480"
     x2="477"
     y1="217"
     y2="221"
     id="line9850" />
  <line
     fill="#000000"
     stroke="#000000"
     stroke-width="1"
     x1="474"
     x2="471"
     y1="225"
     y2="229"
     id="line9852" />
  <line
     fill="#000000"
     stroke="#000000"
     stroke-width="1"
     x1="468"
     x2="465"
     y1="233"
     y2="237"
     id="line9854" />
  <line
     fill="#000000"
     stroke="#000000"
     stroke-width="1"
     x1="463"
     x2="462"
     y1="227"
     y2="241"
     id="line9856" />
  <line
     fill="#000000"
     stroke="#000000"
     stroke-width="1"
     x1="474"
     x2="462"
     y1="235"
     y2="241"
     id="line9858" />
  <text
     font-family="Dialog"
     font-size="12"
     x="510"
     y="194"
     id="text9860">
uses</text>
  <polygon
     fill="#ffffff"
     points="586,210 741,210 741,233 790,233 790,309 586,309 586,210"
     stroke="#ffffff"
     stroke-width="1"
     id="polygon9862" />
  <rect
     fill="none"
     height="23"
     stroke="#000000"
     stroke-width="1"
     width="155"
     x="586"
     y="210"
     id="rect9864" />
  <text
     font-family="Dialog"
     font-size="12"
     x="591"
     y="223"
     id="text9866">
Specific Java Interfaces</text>
  <rect
     fill="none"
     height="76"
     stroke="#000000"
     stroke-width="1"
     width="204"
     x="586"
     y="233"
     id="rect9868" />
  <line
     fill="#000000"
     stroke="#000000"
     stroke-width="1"
     x1="678"
     x2="678"
     y1="130"
     y2="135"
     id="line9870" />
  <line
     fill="#000000"
     stroke="#000000"
     stroke-width="1"
     x1="678"
     x2="678"
     y1="140"
     y2="145"
     id="line9872" />
  <line
     fill="#000000"
     stroke="#000000"
     stroke-width="1"
     x1="678"
     x2="678"
     y1="150"
     y2="155"
     id="line9874" />
  <line
     fill="#000000"
     stroke="#000000"
     stroke-width="1"
     x1="678"
     x2="678"
     y1="160"
     y2="165"
     id="line9876" />
  <line
     fill="#000000"
     stroke="#000000"
     stroke-width="1"
     x1="678"
     x2="678"
     y1="170"
     y2="175"
     id="line9878" />
  <line
     fill="#000000"
     stroke="#000000"
     stroke-width="1"
     x1="678"
     x2="678"
     y1="180"
     y2="185"
     id="line9880" />
  <line
     fill="#000000"
     stroke="#000000"
     stroke-width="1"
     x1="678"
     x2="678"
     y1="190"
     y2="195"
     id="line9882" />
  <line
     fill="#000000"
     stroke="#000000"
     stroke-width="1"
     x1="678"
     x2="678"
     y1="200"
     y2="205"
     id="line9884" />
  <line
     fill="#000000"
     stroke="#000000"
     stroke-width="1"
     x1="671"
     x2="678"
     y1="198"
     y2="210"
     id="line9886" />
  <line
     fill="#000000"
     stroke="#000000"
     stroke-width="1"
     x1="685"
     x2="678"
     y1="198"
     y2="210"
     id="line9888" />
  <text
     font-family="Dialog"
     font-size="12"
     x="681"
     y="175"
     id="text9890">
Produces</text>
  <polygon
     fill="#ffffff"
     points="118,354 257,354 257,377 306,377 306,449 118,449 118,354"
     stroke="#ffffff"
     stroke-width="1"
     id="polygon9892" />
  <rect
     fill="none"
     height="23"
     stroke="#000000"
     stroke-width="1"
     width="139"
     x="118"
     y="354"
     id="rect9894" />
  <text
     font-family="Dialog"
     font-size="12"
     x="123"
     y="367"
     id="text9896">
ValueDomainFactory</text>
  <rect
     fill="none"
     height="72"
     stroke="#000000"
     stroke-width="1"
     width="188"
     x="118"
     y="377"
     id="rect9898" />
  <line
     fill="#000000"
     stroke="#000000"
     stroke-width="1"
     x1="194"
     x2="191"
     y1="126"
     y2="129"
     id="line9900" />
  <line
     fill="#000000"
     stroke="#000000"
     stroke-width="1"
     x1="188"
     x2="184"
     y1="133"
     y2="137"
     id="line9902" />
  <line
     fill="#000000"
     stroke="#000000"
     stroke-width="1"
     x1="181"
     x2="178"
     y1="141"
     y2="144"
     id="line9904" />
  <line
     fill="#000000"
     stroke="#000000"
     stroke-width="1"
     x1="174"
     x2="171"
     y1="148"
     y2="152"
     id="line9906" />
  <line
     fill="#000000"
     stroke="#000000"
     stroke-width="1"
     x1="167"
     x2="164"
     y1="156"
     y2="159"
     id="line9908" />
  <line
     fill="#000000"
     stroke="#000000"
     stroke-width="1"
     x1="161"
     x2="158"
     y1="163"
     y2="166"
     id="line9910" />
  <line
     fill="#000000"
     stroke="#000000"
     stroke-width="1"
     x1="158"
     x2="158"
     y1="166"
     y2="171"
     id="line9912" />
  <line
     fill="#000000"
     stroke="#000000"
     stroke-width="1"
     x1="158"
     x2="158"
     y1="176"
     y2="181"
     id="line9914" />
  <line
     fill="#000000"
     stroke="#000000"
     stroke-width="1"
     x1="158"
     x2="158"
     y1="186"
     y2="191"
     id="line9916" />
  <line
     fill="#000000"
     stroke="#000000"
     stroke-width="1"
     x1="158"
     x2="158"
     y1="196"
     y2="201"
     id="line9918" />
  <line
     fill="#000000"
     stroke="#000000"
     stroke-width="1"
     x1="158"
     x2="158"
     y1="206"
     y2="211"
     id="line9920" />
  <line
     fill="#000000"
     stroke="#000000"
     stroke-width="1"
     x1="158"
     x2="158"
     y1="216"
     y2="221"
     id="line9922" />
  <line
     fill="#000000"
     stroke="#000000"
     stroke-width="1"
     x1="158"
     x2="158"
     y1="226"
     y2="231"
     id="line9924" />
  <line
     fill="#000000"
     stroke="#000000"
     stroke-width="1"
     x1="158"
     x2="158"
     y1="236"
     y2="241"
     id="line9926" />
  <line
     fill="#000000"
     stroke="#000000"
     stroke-width="1"
     x1="158"
     x2="158"
     y1="246"
     y2="251"
     id="line9928" />
  <line
     fill="#000000"
     stroke="#000000"
     stroke-width="1"
     x1="158"
     x2="158"
     y1="256"
     y2="261"
     id="line9930" />
  <line
     fill="#000000"
     stroke="#000000"
     stroke-width="1"
     x1="158"
     x2="158"
     y1="266"
     y2="271"
     id="line9932" />
  <line
     fill="#000000"
     stroke="#000000"
     stroke-width="1"
     x1="158"
     x2="158"
     y1="276"
     y2="281"
     id="line9934" />
  <line
     fill="#000000"
     stroke="#000000"
     stroke-width="1"
     x1="158"
     x2="158"
     y1="286"
     y2="291"
     id="line9936" />
  <line
     fill="#000000"
     stroke="#000000"
     stroke-width="1"
     x1="158"
     x2="158"
     y1="296"
     y2="301"
     id="line9938" />
  <line
     fill="#000000"
     stroke="#000000"
     stroke-width="1"
     x1="158"
     x2="158"
     y1="306"
     y2="311"
     id="line9940" />
  <line
     fill="#000000"
     stroke="#000000"
     stroke-width="1"
     x1="158"
     x2="158"
     y1="316"
     y2="321"
     id="line9942" />
  <line
     fill="#000000"
     stroke="#000000"
     stroke-width="1"
     x1="158"
     x2="158"
     y1="326"
     y2="331"
     id="line9944" />
  <line
     fill="#000000"
     stroke="#000000"
     stroke-width="1"
     x1="158"
     x2="158"
     y1="336"
     y2="341"
     id="line9946" />
  <line
     fill="#000000"
     stroke="#000000"
     stroke-width="1"
     x1="158"
     x2="158"
     y1="346"
     y2="351"
     id="line9948" />
  <line
     fill="#000000"
     stroke="#000000"
     stroke-width="1"
     x1="151"
     x2="158"
     y1="342"
     y2="354"
     id="line9950" />
  <line
     fill="#000000"
     stroke="#000000"
     stroke-width="1"
     x1="165"
     x2="158"
     y1="342"
     y2="354"
     id="line9952" />
  <text
     font-family="Dialog"
     font-size="12"
     x="160"
     y="242"
     id="text9954">
creates</text>
  <polygon
     fill="#ffffff"
     points="14,138 105,138 115,148 115,201 14,201 14,138"
     stroke="#ffffff"
     stroke-width="1"
     id="polygon9956" />
  <polyline
     fill="none"
     points="14,138 105,138 115,148 115,201 14,201 14,138"
     stroke="#000000"
     stroke-width="1"
     id="polyline9958" />
  <polygon
     fill="#ffffff"
     points="105,138 115,148 105,148 105,138"
     stroke="#ffffff"
     stroke-width="1"
     id="polygon9960" />
  <polyline
     fill="none"
     points="105,138 115,148 105,148 105,138"
     stroke="#000000"
     stroke-width="1"
     id="polyline9962" />
  <text
     font-family="Dialog"
     font-size="12"
     x="17"
     y="153"
     id="text9964">
Value Domain</text>
  <text
     font-family="Dialog"
     font-size="12"
     x="17"
     y="168"
     id="text9966">
Definition</text>
  <line
     fill="#000000"
     stroke="#000000"
     stroke-width="1"
     x1="194"
     x2="189"
     y1="114"
     y2="114"
     id="line9968" />
  <line
     fill="#000000"
     stroke="#000000"
     stroke-width="1"
     x1="184"
     x2="179"
     y1="114"
     y2="114"
     id="line9970" />
  <line
     fill="#000000"
     stroke="#000000"
     stroke-width="1"
     x1="174"
     x2="169"
     y1="114"
     y2="114"
     id="line9972" />
  <line
     fill="#000000"
     stroke="#000000"
     stroke-width="1"
     x1="164"
     x2="159"
     y1="114"
     y2="114"
     id="line9974" />
  <line
     fill="#000000"
     stroke="#000000"
     stroke-width="1"
     x1="154"
     x2="149"
     y1="114"
     y2="114"
     id="line9976" />
  <line
     fill="#000000"
     stroke="#000000"
     stroke-width="1"
     x1="150"
     x2="147"
     y1="114"
     y2="117"
     id="line9980" />
  <line
     fill="#000000"
     stroke="#000000"
     stroke-width="1"
     x1="143"
     x2="140"
     y1="121"
     y2="124"
     id="line9982" />
  <line
     fill="#000000"
     stroke="#000000"
     stroke-width="1"
     x1="136"
     x2="133"
     y1="128"
     y2="131"
     id="line9984" />
  <line
     fill="#000000"
     stroke="#000000"
     stroke-width="1"
     x1="129"
     x2="126"
     y1="135"
     y2="138"
     id="line9986" />
  <line
     fill="#000000"
     stroke="#000000"
     stroke-width="1"
     x1="122"
     x2="119"
     y1="142"
     y2="145"
     id="line9988" />
  <line
     fill="#000000"
     stroke="#000000"
     stroke-width="1"
     x1="119"
     x2="116"
     y1="134"
     y2="148"
     id="line9990" />
  <line
     fill="#000000"
     stroke="#000000"
     stroke-width="1"
     x1="129"
     x2="116"
     y1="144"
     y2="148"
     id="line9992" />
  <text
     font-family="Dialog"
     font-size="12"
     x="120"
     y="103"
     id="text9994">
Reads</text>
  <polygon
     fill="#ffffff"
     points="598,382 727,382 727,405 776,405 776,481 598,481 598,382"
     stroke="#ffffff"
     stroke-width="1"
     id="polygon9996" />
  <rect
     fill="none"
     height="23"
     stroke="#000000"
     stroke-width="1"
     width="129"
     x="598"
     y="382"
     id="rect9998" />
  <text
     font-family="Dialog"
     font-size="12"
     x="603"
     y="395"
     id="text10000">
Runtime Interfaces</text>
  <rect
     fill="none"
     height="76"
     stroke="#000000"
     stroke-width="1"
     width="178"
     x="598"
     y="405"
     id="rect10002" />
  <line
     fill="#000000"
     stroke="#000000"
     stroke-width="1"
     x1="682"
     x2="682"
     y1="310"
     y2="315"
     id="line10004" />
  <line
     fill="#000000"
     stroke="#000000"
     stroke-width="1"
     x1="682"
     x2="682"
     y1="320"
     y2="325"
     id="line10006" />
  <line
     fill="#000000"
     stroke="#000000"
     stroke-width="1"
     x1="682"
     x2="682"
     y1="330"
     y2="335"
     id="line10008" />
  <line
     fill="#000000"
     stroke="#000000"
     stroke-width="1"
     x1="682"
     x2="682"
     y1="340"
     y2="345"
     id="line10010" />
  <line
     fill="#000000"
     stroke="#000000"
     stroke-width="1"
     x1="682"
     x2="682"
     y1="350"
     y2="355"
     id="line10012" />
  <line
     fill="#000000"
     stroke="#000000"
     stroke-width="1"
     x1="682"
     x2="682"
     y1="360"
     y2="365"
     id="line10014" />
  <line
     fill="#000000"
     stroke="#000000"
     stroke-width="1"
     x1="682"
     x2="682"
     y1="370"
     y2="375"
     id="line10016" />
  <line
     fill="#000000"
     stroke="#000000"
     stroke-width="1"
     x1="682"
     x2="682"
     y1="380"
     y2="382"
     id="line10018" />
  <line
     fill="#000000"
     stroke="#000000"
     stroke-width="1"
     x1="675"
     x2="682"
     y1="370"
     y2="382"
     id="line10020" />
  <line
     fill="#000000"
     stroke="#000000"
     stroke-width="1"
     x1="689"
     x2="682"
     y1="370"
     y2="382"
     id="line10022" />
  <text
     font-family="Dialog"
     font-size="12"
     x="685"
     y="351"
     id="text10024">
uses</text>
  <polygon
     fill="#ffffff"
     points="922,198 1256,198 1256,221 1305,221 1305,465 922,465 922,198"
     stroke="#ffffff"
     stroke-width="1"
     id="polygon10026" />
  <rect
     fill="none"
     height="23"
     stroke="#000000"
     stroke-width="1"
     width="334"
     x="922"
     y="198"
     id="rect10028" />
  <text
     font-family="Dialog"
     font-size="12"
     x="927"
     y="211"
     id="text10030">
Implementations</text>
  <rect
     fill="none"
     height="244"
     stroke="#000000"
     stroke-width="1"
     width="383"
     x="922"
     y="221"
     id="rect10032" />
  <polygon
     fill="#ffffff"
     points="934,238 1038,238 1038,261 1087,261 1087,333 934,333 934,238"
     stroke="#ffffff"
     stroke-width="1"
     id="polygon10034" />
  <rect
     fill="none"
     height="23"
     stroke="#000000"
     stroke-width="1"
     width="104"
     x="934"
     y="238"
     id="rect10036" />
  <text
     font-family="Dialog"
     font-size="12"
     x="939"
     y="251"
     id="text10038">
Reference Impl</text>
  <rect
     fill="none"
     height="72"
     stroke="#000000"
     stroke-width="1"
     width="153"
     x="934"
     y="261"
     id="rect10040" />
  <polygon
     fill="#ffffff"
     points="938,350 1032,350 1032,373 1081,373 1081,449 938,449 938,350"
     stroke="#ffffff"
     stroke-width="1"
     id="polygon10042" />
  <rect
     fill="none"
     height="23"
     stroke="#000000"
     stroke-width="1"
     width="94"
     x="938"
     y="350"
     id="rect10044" />
  <text
     font-family="Dialog"
     font-size="12"
     x="943"
     y="363"
     id="text10046">
Memory Impl</text>
  <rect
     fill="none"
     height="76"
     stroke="#000000"
     stroke-width="1"
     width="143"
     x="938"
     y="373"
     id="rect10048" />
  <polygon
     fill="#ffffff"
     points="1126,234 1220,234 1220,257 1269,257 1269,333 1126,333 1126,234"
     stroke="#ffffff"
     stroke-width="1"
     id="polygon10050" />
  <rect
     fill="none"
     height="23"
     stroke="#000000"
     stroke-width="1"
     width="94"
     x="1126"
     y="234"
     id="rect10052" />
  <text
     font-family="Dialog"
     font-size="12"
     x="1131"
     y="247"
     id="text10054">
SQL Impl</text>
  <rect
     fill="none"
     height="76"
     stroke="#000000"
     stroke-width="1"
     width="143"
     x="1126"
     y="257"
     id="rect10056" />
  <polygon
     fill="#ffffff"
     points="1126,354 1220,354 1220,377 1269,377 1269,449 1126,449 1126,354"
     stroke="#ffffff"
     stroke-width="1"
     id="polygon10058" />
  <rect
     fill="none"
     height="23"
     stroke="#000000"
     stroke-width="1"
     width="94"
     x="1126"
     y="354"
     id="rect10060" />
  <text
     font-family="Dialog"
     font-size="12"
     x="1131"
     y="367"
     id="text10062">
BigTable Impl</text>
  <rect
     fill="none"
     height="72"
     stroke="#000000"
     stroke-width="1"
     width="143"
     x="1126"
     y="377"
     id="rect10064" />
  <polyline
     fill="none"
     points="938,446 777,446"
     stroke="#000000"
     stroke-width="1"
     id="polyline10066" />
  <polygon
     fill="#ffffff"
     points="777,446 789,439 789,453"
     stroke="#ffffff"
     stroke-width="1"
     id="polygon10068" />
  <polygon
     fill="none"
     points="777,446 789,439 789,453"
     stroke="#000000"
     stroke-width="1"
     id="polygon10070" />
  <polyline
     fill="none"
     points="934,334 882,334 882,418 777,418"
     stroke="#000000"
     stroke-width="1"
     id="polyline10072" />
  <polygon
     fill="#ffffff"
     points="777,418 789,411 789,425"
     stroke="#ffffff"
     stroke-width="1"
     id="polygon10074" />
  <polygon
     fill="none"
     points="777,418 789,411 789,425"
     stroke="#000000"
     stroke-width="1"
     id="polygon10076" />
  <polyline
     fill="none"
     points="1126,334 1110,346 898,346 898,434 777,434"
     stroke="#000000"
     stroke-width="1"
     id="polyline10078" />
  <polygon
     fill="#ffffff"
     points="777,434 789,427 789,441"
     stroke="#ffffff"
     stroke-width="1"
     id="polygon10080" />
  <polygon
     fill="none"
     points="777,434 789,427 789,441"
     stroke="#000000"
     stroke-width="1"
     id="polygon10082" />
  <polyline
     fill="none"
     points="1126,450 1090,482 777,482"
     stroke="#000000"
     stroke-width="1"
     id="polyline10084" />
  <polygon
     fill="#ffffff"
     points="777,482 789,475 789,489"
     stroke="#ffffff"
     stroke-width="1"
     id="polygon10086" />
  <polygon
     fill="none"
     points="777,482 789,475 789,489"
     stroke="#000000"
     stroke-width="1"
     id="polygon10088" />
</svg>
